<svg width="70" height="84" viewBox="0 0 70 84" fill="none" xmlns="http://www.w3.org/2000/svg">
<g clip-path="url(#clip0_3530_22569)">
<path d="M11.8816 30.7011C11.9189 30.5695 11.9509 30.438 11.9776 30.3248C11.9509 30.4432 11.9163 30.5695 11.8816 30.7011ZM67.5758 44.3835C67.5028 44.1248 67.4137 43.8709 67.3091 43.623C67.2184 43.4073 65.0714 39.9393 62.607 36.0267L52.6721 19.3447L44.3428 5.36236C42.8385 2.79692 41.2543 1.12083 38.0831 0.318302C34.4799 -0.592102 31.098 0.48407 29.1963 2.24699C28.5693 2.83011 27.9946 3.46573 27.4787 4.14674C27.2105 4.39061 26.9617 4.65452 26.7346 4.93611C26.5399 5.18081 22.9713 11.2247 19.9042 16.5372C16.4556 22.3259 12.3457 29.2644 12.0576 29.9749L8.29702 36.2267C7.02482 38.2764 5.84063 40.4366 4.56309 42.5416C3.22954 44.7071 1.80798 46.6753 2.02401 49.9432C2.20538 52.6955 3.13352 54.1664 4.69111 56.0214C4.9021 56.2638 5.14521 56.4771 5.41389 56.6555C5.58192 56.7897 5.53658 56.7713 5.6966 56.9055L6.09133 57.1896C6.31972 57.3808 6.57596 57.5369 6.85145 57.6527C8.50101 58.4857 10.3328 58.9058 12.1856 58.8763C12.3883 58.9236 12.5884 58.9578 12.7884 58.9868C13.1138 59.0289 20.6563 58.9736 27.0253 58.8631C32.6636 58.8631 38.3125 58.8447 43.94 58.9052C47.2899 58.942 50.8265 58.9762 54.1656 58.8894C57.3795 58.8026 60.6867 59.1999 63.4658 57.9185C65.1191 57.1529 66.5096 55.9274 67.4664 54.3926C69.7015 51.151 69.1707 47.8672 67.6851 44.6229L67.5758 44.3835Z" fill="url(#paint0_linear_3530_22569)"/>
<path d="M30.2232 50.2722H40.1901V38.7816H52.024V29.104H40.1901V17.6134H30.2232V29.104H18.3973V38.7816H30.2338L30.2232 50.2722Z" fill="white"/>
</g>
<path d="M10.957 79H12.8027L7.60742 64.9082H5.86914L0.673828 79H2.51953L3.93555 74.9668H9.54102L10.957 79ZM6.70898 67.0469H6.76758L9.02344 73.4727H4.45312L6.70898 67.0469ZM16.1523 79V67.9746H16.2402L23.9551 79H25.6641V64.9082H23.9258V75.9727H23.8379L16.123 64.9082H14.4141V79H16.1523ZM30.1367 79V67.9746H30.2246L37.9395 79H39.6484V64.9082H37.9102V75.9727H37.8223L30.1074 64.9082H28.3984V79H30.1367ZM44.1406 64.9082H42.3828V74.0586C42.3828 77.0664 44.4824 79.2344 47.9785 79.2344C51.4746 79.2344 53.5742 77.0664 53.5742 74.0586V64.9082H51.8164V73.9414C51.8164 76.0703 50.4199 77.6133 47.9785 77.6133C45.5371 77.6133 44.1406 76.0703 44.1406 73.9414V64.9082ZM62.2559 64.6738C58.2617 64.6738 55.7617 67.4863 55.7617 71.959C55.7617 76.4316 58.2617 79.2344 62.2559 79.2344C66.25 79.2344 68.75 76.4316 68.75 71.959C68.75 67.4863 66.25 64.6738 62.2559 64.6738ZM62.2559 66.2949C65.1367 66.2949 66.9434 68.4824 66.9434 71.959C66.9434 75.4258 65.1367 77.6133 62.2559 77.6133C59.375 77.6133 57.5684 75.4258 57.5684 71.959C57.5684 68.4824 59.375 66.2949 62.2559 66.2949Z" fill="#2E62A6"/>
<defs>
<linearGradient id="paint0_linear_3530_22569" x1="35.4878" y1="-0.0123291" x2="35.4517" y2="52.9736" gradientUnits="userSpaceOnUse">
<stop stop-color="#F20505"/>
<stop offset="1" stop-color="#2E62A6"/>
</linearGradient>
<clipPath id="clip0_3530_22569">
<rect width="67" height="59" fill="white" transform="translate(2)"/>
</clipPath>
</defs>
</svg>
